<?xml version="1.0" standalone="no"?>
<!DOCTYPE svg PUBLIC "-//W3C//DTD SVG 20010904//EN"
 "http://www.w3.org/TR/2001/REC-SVG-20010904/DTD/svg10.dtd">
<svg version="1.0" xmlns="http://www.w3.org/2000/svg"
 width="402.000000pt" height="640.000000pt" viewBox="0 0 402.000000 640.000000"
 preserveAspectRatio="xMidYMid meet">

<g transform="translate(0.000000,640.000000) scale(0.100000,-0.100000)"
fill="#000000" stroke="none">
<path d="M5 4348 c-3 -7 -4 -515 -3 -1128 l3 -1115 70 0 70 0 5 1037 5 1038
700 -1023 c608 -889 760 -1103 1164 -1642 255 -341 470 -627 478 -635 8 -8
-342 518 -777 1170 -436 652 -961 1438 -1168 1748 l-375 562 -84 0 c-58 0 -85
-4 -88 -12z"/>
<path d="M1895 4348 c-3 -7 -4 -515 -3 -1128 l3 -1115 763 -3 762 -2 0 60 0
60 -695 0 -695 0 0 495 0 495 645 0 645 0 0 65 0 65 -645 0 -645 0 0 450 0
450 685 0 685 0 0 60 0 60 -750 0 c-591 0 -752 -3 -755 -12z"/>
<path d="M3546 4348 c10 -17 455 -640 466 -652 4 -6 8 40 8 100 l0 111 -162
226 -161 227 -79 0 c-61 0 -77 -3 -72 -12z"/>
<path d="M3778 2511 c-130 -179 -251 -345 -268 -368 l-32 -43 84 1 83 0 188
260 188 261 -3 107 -3 108 -237 -326z"/>
</g>
</svg>
