<?xml version="1.0" standalone="no"?>
<!DOCTYPE svg PUBLIC "-//W3C//DTD SVG 20010904//EN"
 "http://www.w3.org/TR/2001/REC-SVG-20010904/DTD/svg10.dtd">
<svg version="1.0" xmlns="http://www.w3.org/2000/svg"
 width="398.000000pt" height="640.000000pt" viewBox="0 0 398.000000 640.000000"
 preserveAspectRatio="xMidYMid meet">

<g transform="translate(0.000000,640.000000) scale(0.100000,-0.100000)"
fill="#000000" stroke="none">
<path d="M1578 4948 c-256 -326 -621 -807 -812 -1068 -192 -261 -356 -483
-365 -492 -15 -17 -27 -2 -196 234 -99 138 -185 258 -192 267 -10 13 -12 -5
-13 -94 l0 -110 150 -210 c82 -115 150 -212 150 -215 0 -3 -68 -97 -150 -210
l-150 -205 1 -110 c0 -101 1 -108 15 -90 9 11 94 129 191 263 97 133 178 242
182 242 3 0 176 -237 384 -525 l379 -525 79 0 c43 0 79 3 79 6 0 3 -187 264
-415 580 l-415 575 731 1062 c403 584 757 1097 787 1140 29 42 52 77 49 77 -2
0 -213 -267 -469 -592z"/>
<path d="M1377 4353 c-4 -3 -7 -30 -7 -60 l0 -53 395 0 395 0 2 -1067 3 -1068
68 -3 67 -3 0 1071 0 1070 400 0 401 0 -3 58 -3 57 -856 3 c-470 1 -859 -1
-862 -5z"/>
<path d="M3715 2746 c-83 -36 -113 -141 -60 -205 26 -30 64 -47 167 -76 84
-23 111 -70 64 -114 -49 -46 -147 -36 -187 20 -26 38 -79 42 -79 7 0 -37 35
-83 76 -104 56 -27 156 -25 211 4 52 27 73 65 73 132 0 67 -32 102 -116 125
-106 29 -145 46 -153 68 -19 52 19 87 93 87 43 0 53 -4 82 -36 26 -27 41 -35
61 -32 23 2 27 7 25 27 -13 87 -157 141 -257 97z"/>
<path d="M3438 2554 c-3 -180 -5 -197 -22 -210 -29 -21 -82 -18 -106 6 -11 11
-20 25 -20 30 0 6 -16 10 -35 10 -29 0 -35 -4 -35 -21 0 -85 123 -144 212
-100 76 36 82 57 86 284 l4 197 -40 0 -41 0 -3 -196z"/>
<path d="M3047 2342 c-21 -23 -22 -46 -1 -66 30 -31 84 -9 84 34 0 24 -26 50
-49 50 -10 0 -25 -8 -34 -18z"/>
</g>
</svg>
